<svg width="60" height="14" viewBox="0 0 60 14" fill="none" xmlns="http://www.w3.org/2000/svg">
<path d="M10.3551 2.35088C9.5996 1.71067 8.55404 1.38896 7.2184 1.38574H0V12.817H3.28387V9.17196C2.65653 9.05132 2.30667 8.87277 1.87156 8.46741C2.74179 8.99582 3.76644 8.99261 4.25061 9.00789H7.2192C8.5543 9.00789 9.59987 8.68216 10.3559 8.03069C11.1119 7.37922 11.4897 6.41865 11.4891 5.14896C11.4886 3.92431 11.1106 2.99162 10.3551 2.35088ZM8.1216 5.34762C8.1216 5.66933 8.02857 5.91785 7.84252 6.09319C7.65646 6.26852 7.37738 6.35672 7.00526 6.35779H3.28387V4.03986H7.00526C7.3881 4.03986 7.67014 4.12538 7.85137 4.29643C8.0326 4.46747 8.12268 4.70875 8.1216 5.02028V5.34762Z" fill="#2D2F39"/>
<path d="M8.45575 8.24707L11.4887 12.8178H8.03994L5.00781 8.24707H8.45575Z" fill="#2D2F39"/>
<path d="M22.9522 1.38965V4.1242H16.0788V5.88476H21.6548V8.53405H16.0788V10.0855H23.0342V12.8201H12.7949V1.38965H22.9522Z" fill="#2D2F39"/>
<path d="M33.2928 1.38976V8.89207L29.6236 2.51173C29.4275 2.16979 29.1447 1.88562 28.8037 1.68793C28.4626 1.49023 28.0755 1.38599 27.6813 1.38574H24.6436V12.817H27.6813V4.84414L32.2657 12.8153H36.3289V1.38976H33.2928Z" fill="#2D2F39"/>
<path d="M37.6963 4.20658V1.3916H48.0385V4.20658H44.4997V12.818H41.2174V4.20658H37.6963Z" fill="#2D2F39"/>
<path fill-rule="evenodd" clip-rule="evenodd" d="M48.6303 4.15386C48.0707 4.84431 47.7774 5.71269 47.8039 6.60106C47.8202 7.52023 48.1856 8.5979 48.9002 9.83407C49.6621 11.1545 50.4487 12.0722 51.26 12.5871C52.0712 13.102 52.93 13.2966 53.8363 13.1709C54.7416 13.0449 55.7239 12.6758 56.7833 12.0637C57.8427 11.4517 58.6532 10.7851 59.215 10.0642C59.7754 9.34225 60.0354 8.50128 59.9951 7.54126C59.9548 6.58124 59.5535 5.44152 58.7913 4.12209C58.0772 2.88436 57.3263 2.02899 56.5388 1.55597C55.7846 1.08864 54.8877 0.907417 54.0112 1.04523C53.1107 1.18251 52.1305 1.55686 51.0708 2.16828C50.011 2.77969 49.1975 3.44155 48.6303 4.15386ZM50.9582 6.31397C50.7764 6.72184 50.747 7.18141 50.8754 7.60912C51.0028 8.0531 51.3203 8.52859 51.8279 9.03561C52.3694 9.57738 52.8705 9.92046 53.3311 10.0649C53.7918 10.2093 54.2339 10.192 54.6574 10.0131C55.0804 9.83426 55.5091 9.5274 55.9437 9.09259C56.3782 8.65777 56.6849 8.22888 56.8638 7.80592C57.0419 7.38269 57.0587 6.94073 56.9143 6.48005C56.7699 6.01937 56.427 5.51842 55.8855 4.97719C55.3779 4.46936 54.9023 4.15187 54.4586 4.02471C54.0318 3.89599 53.5729 3.92467 53.1654 4.10554C52.7463 4.28927 52.3193 4.59841 51.8844 5.03296C51.4496 5.4675 51.1409 5.89451 50.9582 6.31397Z" fill="#7D7FF2"/>
</svg>
