<svg width="83" height="18" viewBox="0 0 83 18" fill="none" xmlns="http://www.w3.org/2000/svg">
<path d="M46.6907 13.0424L37.0666 2.52161L35.0063 3.35608V16.9039H37.3888V6.44185L47.0123 16.9633L49.0725 16.1288V2.49121H46.6907V13.0424Z" fill="#292B33"/>
<path d="M51.5376 4.93178H57.3798V16.9039H59.7616V4.93178H65.6038V2.49121H51.5376V4.93178Z" fill="#292B33"/>
<path d="M12.8763 12.3985L14.0655 11.1765V3.71184L12.8763 2.49121H1.19123L0 3.71184V16.906H2.38178V12.3985H9.00261L12.6235 17.3937L14.5354 15.9375L11.9702 12.4006L12.8763 12.3985ZM11.6851 9.95798H2.38178V4.93178H11.6851V9.95798Z" fill="#292B33"/>
<path d="M82.1114 3.36596L70.7425 0.606934L69.3093 1.51325L66.6167 13.1628L67.5005 14.63L78.8701 17.3932L80.3033 16.4869L82.9999 4.83665L82.1114 3.36596ZM78.26 14.735L69.2081 12.5376L71.3519 3.26303L80.4038 5.45975L78.26 14.735Z" fill="#6F57EB"/>
<path d="M17.98 3.71184V15.7178L19.1382 16.9039H32.0455V14.464H20.3618V10.9182H28.8048V8.47761H20.3618V4.93178H32.0455V2.49121H19.1705L17.98 3.71184Z" fill="#292B33"/>
</svg>
