<svg width="60" height="63" viewBox="0 0 60 63" fill="none" xmlns="http://www.w3.org/2000/svg">
<path d="M52 1L53.2869 6.71307L59 8L53.2869 9.28693L52 15L50.7131 9.28693L45 8L50.7131 6.71307L52 1Z" stroke="#BEBFF9" stroke-linejoin="round"/>
<path d="M30.1086 10.7538C30.4792 10.0246 31.5208 10.0246 31.8915 10.7538L32.9227 12.7826C33.2337 13.3946 34.0548 13.5183 34.5324 13.0252L36.1158 11.3905C36.6849 10.803 37.6803 11.11 37.8195 11.916L38.2069 14.1587C38.3238 14.8351 39.0719 15.1954 39.6736 14.865L41.6685 13.7696C42.3855 13.376 43.2462 13.9627 43.1416 14.774L42.8508 17.0312C42.7631 17.712 43.3718 18.2768 44.0442 18.1384L46.2733 17.6797C47.0745 17.5149 47.7239 18.3293 47.3849 19.0737L46.4417 21.1449C46.1572 21.7696 46.5724 22.4887 47.2557 22.5547L49.521 22.7734C50.3351 22.852 50.7157 23.8217 50.1723 24.4331L48.6605 26.1342C48.2045 26.6473 48.3893 27.4569 49.0228 27.7213L51.123 28.598C51.8778 28.9132 51.9556 29.9519 51.2562 30.376L49.3101 31.5559C48.7231 31.9118 48.6611 32.7398 49.1885 33.1793L50.9369 34.6361C51.5654 35.1597 51.3336 36.1752 50.5402 36.3743L48.3328 36.9282C47.667 37.0953 47.3636 37.8682 47.7381 38.4436L48.9794 40.3511C49.4256 41.0366 48.9048 41.9387 48.088 41.8951L45.8154 41.7738C45.1299 41.7372 44.6122 42.3864 44.8004 43.0465L45.4244 45.2352C45.6487 46.0218 44.8851 46.7303 44.1174 46.4478L41.9816 45.662C41.3373 45.425 40.6512 45.8928 40.6365 46.5791L40.5877 48.8544C40.5701 49.6722 39.6316 50.1241 38.9813 49.628L37.172 48.2475C36.6262 47.8311 35.8327 48.0759 35.6164 48.7274L34.899 50.8872C34.6412 51.6635 33.6112 51.8187 33.136 51.1529L31.814 49.3005C31.4152 48.7417 30.5848 48.7417 30.186 49.3005L28.864 51.1529C28.3888 51.8187 27.3588 51.6635 27.101 50.8872L26.3836 48.7274C26.1673 48.0759 25.3738 47.8311 24.828 48.2475L23.0187 49.628C22.3684 50.1241 21.4299 49.6722 21.4123 48.8544L21.3635 46.5791C21.3488 45.8928 20.6627 45.425 20.0184 45.662L17.8826 46.4479C17.1149 46.7303 16.3513 46.0218 16.5756 45.2352L17.1996 43.0465C17.3878 42.3864 16.8701 41.7372 16.1846 41.7738L13.912 41.8951C13.0952 41.9387 12.5744 41.0366 13.0206 40.3511L14.2619 38.4436C14.6364 37.8682 14.333 37.0953 13.6672 36.9282L11.4598 36.3743C10.6664 36.1752 10.4346 35.1597 11.0631 34.6361L12.8115 33.1793C13.3389 32.7398 13.2769 31.9118 12.6899 31.5559L10.7438 30.376C10.0444 29.9519 10.1222 28.9132 10.877 28.598L12.9772 27.7213C13.6107 27.4569 13.7955 26.6473 13.3395 26.1342L11.8277 24.4331C11.2843 23.8216 11.6649 22.852 12.479 22.7734L14.7443 22.5547C15.4276 22.4887 15.8428 21.7696 15.5583 21.1449L14.6151 19.0737C14.2761 18.3293 14.9255 17.5149 15.7267 17.6797L17.9558 18.1384C18.6282 18.2768 19.2369 17.712 19.1492 17.0312L18.8584 14.774C18.7538 13.9627 19.6145 13.376 20.3315 13.7696L22.3264 14.865C22.9281 15.1954 23.6762 14.8351 23.7931 14.1587L24.1805 11.916C24.3197 11.11 25.3151 10.803 25.8842 11.3905L27.4676 13.0252C27.9452 13.5183 28.7663 13.3946 29.0773 12.7826L30.1086 10.7538Z" fill="#BEBFF9"/>
<path d="M29.7213 22.3958C28.6208 22.3958 27.4164 22.6194 26.1082 23.0667C24.8208 23.4926 23.5852 24.2273 22.4016 25.2708L21 23.3542C22.1836 22.3106 23.5541 21.4907 25.1115 20.8944C26.6689 20.2981 28.3093 20 30.0328 20C31.7148 20 33.1787 20.1917 34.4246 20.575C35.6705 20.937 36.6984 21.4481 37.5082 22.1083C38.3388 22.7472 38.9617 23.5032 39.377 24.3764C39.7923 25.2495 40 26.1866 40 27.1875C40 29.1894 39.2628 30.8079 37.7885 32.0431C36.335 33.2782 34.3208 34.0556 31.7459 34.375V36.2917H27.6967V31.9792C29.088 31.9792 30.2716 31.862 31.2475 31.6278C32.2235 31.3722 33.0126 31.0315 33.6148 30.6056C34.2169 30.1796 34.653 29.6792 34.923 29.1042C35.1929 28.5079 35.3279 27.869 35.3279 27.1875C35.3279 26.506 35.2033 25.8778 34.9541 25.3028C34.7049 24.7065 34.3415 24.1954 33.8639 23.7694C33.3863 23.3435 32.7945 23.0134 32.0885 22.7792C31.4033 22.5236 30.6142 22.3958 29.7213 22.3958ZM32.0574 40.6042C32.0574 41.2431 31.8393 41.8074 31.4033 42.2972C30.988 42.7657 30.4273 43 29.7213 43C29.0153 43 28.4443 42.7657 28.0082 42.2972C27.5929 41.8074 27.3852 41.2431 27.3852 40.6042C27.3852 39.9653 27.5929 39.4116 28.0082 38.9431C28.4443 38.4532 29.0153 38.2083 29.7213 38.2083C30.4066 38.2083 30.9672 38.4532 31.4033 38.9431C31.8393 39.4116 32.0574 39.9653 32.0574 40.6042Z" fill="#292B33"/>
<path d="M9 46L10.4708 52.5292L17 54L10.4708 55.4708L9 62L7.52922 55.4708L1 54L7.52922 52.5292L9 46Z" stroke="#BEBFF9" stroke-linejoin="round"/>
</svg>
