<svg width="340" height="144" viewBox="0 0 340 144" fill="none" xmlns="http://www.w3.org/2000/svg">
<g style="mix-blend-mode:multiply" opacity="0.2">
<path d="M100.012 106.588H117.443V127.513H100.012V142.225H72.122V127.513H13.1138V106.968L57.6605 53.4492H100.012V106.588ZM45.6522 104.178V106.588H73.8006V87.3106C73.8006 82.7451 74.1449 78.729 74.8335 75.2626C75.5222 71.7116 76.5121 67.7378 77.8033 63.3413H75.4791C74.0158 67.3996 72.4233 70.9084 70.7017 73.8675C69.0661 76.8267 66.9571 79.8704 64.3747 82.9987L45.6522 104.178Z" fill="#404656"/>
<path d="M175.644 144C165.143 144 155.932 142.013 148.013 138.039C140.093 133.981 133.982 128.485 129.678 121.553C125.46 114.535 123.351 106.63 123.351 97.8369C123.351 89.0439 125.46 81.1809 129.678 74.248C133.982 67.2305 140.093 61.7349 148.013 57.7612C155.932 53.7029 165.143 51.6737 175.644 51.6737C186.146 51.6737 195.357 53.7029 203.276 57.7612C211.196 61.7349 217.264 67.2305 221.482 74.248C225.786 81.1809 227.938 89.0439 227.938 97.8369C227.938 106.63 225.786 114.535 221.482 121.553C217.264 128.485 211.196 133.981 203.276 138.039C195.357 142.013 186.146 144 175.644 144ZM175.644 121.806C183.047 121.806 188.944 119.65 193.334 115.338C197.81 110.942 200.048 105.108 200.048 97.8369C200.048 90.5657 197.81 84.7742 193.334 80.4623C188.944 76.0658 183.047 73.8675 175.644 73.8675C168.242 73.8675 162.302 76.0658 157.826 80.4623C153.436 84.7742 151.241 90.5657 151.241 97.8369C151.241 105.108 153.436 110.942 157.826 115.338C162.302 119.65 168.242 121.806 175.644 121.806Z" fill="#404656"/>
<path d="M322.569 106.588H340V127.513H322.569V142.225H294.679V127.513H235.67V106.968L280.217 53.4492H322.569V106.588ZM268.209 104.178V106.588H296.357V87.3106C296.357 82.7451 296.702 78.729 297.39 75.2626C298.079 71.7116 299.069 67.7378 300.36 63.3413H298.036C296.572 67.3996 294.98 70.9084 293.258 73.8675C291.623 76.8267 289.514 79.8704 286.931 82.9987L268.209 104.178Z" fill="#404656"/>
</g>
<path d="M92.063 98.2728L104.406 87.8377L109.494 98.2728V119.198H92.063V133.91H64.173L59.0122 124.002L64.173 119.198H5.16482L0 109.14L5.16482 98.6533L49.7115 45.1344H70.8873L87.2573 35.3255L92.063 45.1344V98.2728ZM37.7032 95.8632V98.2728H65.8515V78.9959C65.8515 74.4303 66.1959 70.4143 66.8845 66.9478C67.5732 63.3968 68.5631 59.423 69.8543 55.0265H67.5301C66.0667 59.0848 64.4743 62.5936 62.7527 65.5528C61.1171 68.5119 59.0081 71.5557 56.4257 74.6839L37.7032 95.8632Z" fill="#404656"/>
<path d="M167.695 135.685C157.194 135.685 147.983 133.698 140.064 129.725C132.144 125.666 126.033 120.171 121.729 113.238C120.645 111.435 116.812 104.124 116.007 102.204C113.678 96.6506 115.402 96.0561 115.402 89.5221C115.402 80.7291 117.511 72.8662 121.729 65.9332C126.033 58.9158 132.144 53.4201 140.064 49.4464C147.983 45.3881 157.194 43.3589 167.695 43.3589C178.197 43.3589 187.408 45.3881 195.327 49.4464C203.247 53.4201 206.108 52.5826 210.325 59.6C214.63 66.533 219.989 80.7291 219.989 89.5221C219.989 98.3151 217.837 106.22 213.533 113.238C209.315 120.171 203.247 125.666 195.327 129.725C187.408 133.698 178.197 135.685 167.695 135.685ZM167.695 113.491C175.098 113.491 180.995 111.335 185.385 107.024C189.861 102.627 192.099 96.7932 192.099 89.5221C192.099 82.251 189.861 76.4594 185.385 72.1475C180.995 67.751 175.098 65.5528 167.695 65.5528C160.293 65.5528 154.353 67.751 149.877 72.1475C145.487 76.4594 143.292 82.251 143.292 89.5221C143.292 96.7932 145.487 102.627 149.877 107.024C154.353 111.335 160.293 113.491 167.695 113.491Z" fill="#404656"/>
<path d="M314.62 98.2728L327.341 88.3331L332.051 98.2728V119.198H314.62V133.91H286.73L281.947 124.002L286.73 119.198H227.721L222.935 109.14L227.721 98.6533L272.268 45.1344L309.688 35.3255L314.62 45.1344V98.2728ZM260.26 95.8632V98.2728H288.408V78.9959C288.408 74.4303 288.753 70.4143 289.441 66.9478C290.13 63.3968 291.12 59.423 292.411 55.0265H290.087C288.623 59.0848 287.031 62.5936 285.309 65.5528C283.674 68.5119 281.565 71.5557 278.982 74.6839L260.26 95.8632Z" fill="#404656"/>
<path d="M87.0193 88.3649H104.451V109.29H87.0193V124.002H59.1292V109.29H0.12104V88.7453L44.6677 35.2265H87.0193V88.3649ZM32.6595 85.9552V88.3649H60.8078V69.0879C60.8078 64.5223 61.1521 60.5063 61.8407 57.0399C62.5294 53.4888 63.5193 49.5151 64.8105 45.1186H62.4863C61.023 49.1769 59.4305 52.6856 57.7089 55.6448C56.0733 58.604 53.9644 61.6477 51.382 64.776L32.6595 85.9552Z" fill="#CBB1FF"/>
<path d="M162.652 125.777C152.15 125.777 142.939 123.79 135.02 119.817C127.1 115.758 120.989 110.263 116.685 103.33C112.467 96.3124 110.358 88.4071 110.358 79.6141C110.358 70.8212 112.467 62.9582 116.685 56.0253C120.989 49.0078 127.1 43.5122 135.02 39.5384C142.939 35.4801 152.15 33.451 162.652 33.451C173.154 33.451 182.364 35.4801 190.284 39.5384C198.203 43.5122 204.272 49.0078 208.49 56.0253C212.794 62.9582 214.946 70.8212 214.946 79.6141C214.946 88.4071 212.794 96.3124 208.49 103.33C204.272 110.263 198.203 115.758 190.284 119.817C182.364 123.79 173.154 125.777 162.652 125.777ZM162.652 103.583C170.055 103.583 175.951 101.428 180.341 97.1156C184.817 92.7191 187.056 86.8853 187.056 79.6141C187.056 72.343 184.817 66.5515 180.341 62.2396C175.951 57.8431 170.055 55.6448 162.652 55.6448C155.249 55.6448 149.309 57.8431 144.833 62.2396C140.443 66.5515 138.248 72.343 138.248 79.6141C138.248 86.8853 140.443 92.7191 144.833 97.1156C149.309 101.428 155.249 103.583 162.652 103.583Z" fill="#CBB1FF"/>
<path d="M309.576 88.3649H327.007V109.29H309.576V124.002H281.686V109.29H222.678V88.7453L267.224 35.2265H309.576V88.3649ZM255.216 85.9552V88.3649H283.364V69.0879C283.364 64.5223 283.709 60.5063 284.397 57.0399C285.086 53.4888 286.076 49.5151 287.367 45.1186H285.043C283.58 49.1769 281.987 52.6856 280.266 55.6448C278.63 58.604 276.521 61.6477 273.939 64.776L255.216 85.9552Z" fill="#CBB1FF"/>
<mask id="mask0_5881_88411" style="mask-type:alpha" maskUnits="userSpaceOnUse" x="84" y="27" width="169" height="107">
<path d="M104.406 80.9022C160.5 41.735 191.972 20.729 249.163 28.8855C254.164 40.3824 253.563 46.6408 249.163 57.6185C241.539 73.2523 234.226 78.8104 219.404 86.847C218.61 79.8869 217.693 76.216 215.369 70.0035L123.068 114.589C127.085 120.365 129.581 123.513 137.191 127.965C119.448 132.56 108.709 133.594 88.7705 133.91C83.0318 114.656 79.418 103.909 104.406 80.9022Z" fill="#C4C4C4"/>
</mask>
<g mask="url(#mask0_5881_88411)">
<g filter="url(#filter0_ii_5881_88411)">
<path fill-rule="evenodd" clip-rule="evenodd" d="M106.89 121.212C106.89 121.212 106.89 121.211 106.891 121.208C106.89 121.211 106.89 121.212 106.89 121.212ZM107.351 119.97C107.633 119.403 108.063 118.676 108.702 117.785C110.907 114.71 114.805 110.754 120.355 106.181C131.377 97.0964 147.911 86.3852 167.34 76.3112C186.769 66.2372 205.101 58.8704 218.955 55.0563C225.931 53.1358 231.456 52.2056 235.284 52.1524C236.394 52.137 237.248 52.1979 237.883 52.2892C237.602 52.8564 237.171 53.5833 236.532 54.4744C234.328 57.5492 230.429 61.5049 224.88 66.0788C213.858 75.1629 197.323 85.8742 177.894 95.9482C158.465 106.022 140.133 113.389 126.279 117.203C119.303 119.124 113.779 120.054 109.95 120.107C108.841 120.122 107.987 120.062 107.351 119.97ZM106.051 119.645C106.048 119.644 106.047 119.643 106.047 119.643C106.047 119.643 106.048 119.644 106.051 119.645ZM112.575 96.9969C124.418 87.2356 141.714 76.0829 161.659 65.7412C181.605 55.3995 200.737 47.6643 215.624 43.5659C223.019 41.53 229.684 40.3013 235.013 40.2273C237.667 40.1904 240.332 40.4316 242.707 41.2202C245.115 42.0197 247.712 43.563 249.238 46.402C250.764 49.241 250.596 52.2175 249.91 54.6216C249.233 56.9925 247.933 59.2897 246.404 61.4211C243.336 65.7013 238.543 70.4137 232.66 75.2625C220.816 85.0238 203.521 96.1765 183.575 106.518C163.63 116.86 144.498 124.595 129.611 128.694C122.216 130.729 115.55 131.958 110.221 132.032C107.567 132.069 104.902 131.828 102.528 131.039C100.119 130.24 97.5226 128.696 95.9967 125.857C94.4708 123.018 94.6384 120.042 95.3247 117.638C96.0015 115.267 97.302 112.97 98.8301 110.838C101.899 106.558 106.692 101.846 112.575 96.9969Z" fill="url(#paint0_linear_5881_88411)"/>
</g>
</g>
<g filter="url(#filter1_ii_5881_88411)">
<path fill-rule="evenodd" clip-rule="evenodd" d="M222.41 6.06145C222.845 3.42662 226.226 2.59406 227.874 4.716L231.897 9.89267L238.174 11.1245C240.741 11.6281 241.572 14.8831 239.551 16.5164L234.607 20.5114L233.547 26.9395C233.112 29.5743 229.732 30.4068 228.083 28.2849L224.061 23.1082L217.783 21.8764C215.216 21.3728 214.386 18.1179 216.407 16.4845L221.35 12.4895L222.41 6.06145ZM227.256 13.6684L227.104 14.591C226.983 15.3259 226.596 15.9897 226.017 16.4578L225.081 17.214L226.269 17.4472C227.005 17.5915 227.664 17.9976 228.124 18.5895L228.702 19.3325L228.854 18.4099C228.975 17.675 229.361 17.0113 229.941 16.5431L230.876 15.7869L229.688 15.5538C228.952 15.4094 228.293 15.0033 227.833 14.4114L227.256 13.6684Z" fill="url(#paint1_linear_5881_88411)"/>
</g>
<defs>
<filter id="filter0_ii_5881_88411" x="94.8201" y="40.2236" width="155.594" height="93.1797" filterUnits="userSpaceOnUse" color-interpolation-filters="sRGB">
<feFlood flood-opacity="0" result="BackgroundImageFix"/>
<feBlend mode="normal" in="SourceGraphic" in2="BackgroundImageFix" result="shape"/>
<feColorMatrix in="SourceAlpha" type="matrix" values="0 0 0 0 0 0 0 0 0 0 0 0 0 0 0 0 0 0 127 0" result="hardAlpha"/>
<feOffset dy="1.17224"/>
<feGaussianBlur stdDeviation="0.586118"/>
<feComposite in2="hardAlpha" operator="arithmetic" k2="-1" k3="1"/>
<feColorMatrix type="matrix" values="0 0 0 0 0.930467 0 0 0 0 0.905327 0 0 0 0 0.995833 0 0 0 1 0"/>
<feBlend mode="normal" in2="shape" result="effect1_innerShadow_5881_88411"/>
<feColorMatrix in="SourceAlpha" type="matrix" values="0 0 0 0 0 0 0 0 0 0 0 0 0 0 0 0 0 0 127 0" result="hardAlpha"/>
<feOffset dy="1.36761"/>
<feGaussianBlur stdDeviation="0.879177"/>
<feComposite in2="hardAlpha" operator="arithmetic" k2="-1" k3="1"/>
<feColorMatrix type="matrix" values="0 0 0 0 1 0 0 0 0 0.655 0 0 0 0 0.25 0 0 0 0.6 0"/>
<feBlend mode="normal" in2="effect1_innerShadow_5881_88411" result="effect2_innerShadow_5881_88411"/>
</filter>
<filter id="filter1_ii_5881_88411" x="215.277" y="3.51309" width="25.4039" height="26.4686" filterUnits="userSpaceOnUse" color-interpolation-filters="sRGB">
<feFlood flood-opacity="0" result="BackgroundImageFix"/>
<feBlend mode="normal" in="SourceGraphic" in2="BackgroundImageFix" result="shape"/>
<feColorMatrix in="SourceAlpha" type="matrix" values="0 0 0 0 0 0 0 0 0 0 0 0 0 0 0 0 0 0 127 0" result="hardAlpha"/>
<feOffset dy="0.423308"/>
<feGaussianBlur stdDeviation="0.211654"/>
<feComposite in2="hardAlpha" operator="arithmetic" k2="-1" k3="1"/>
<feColorMatrix type="matrix" values="0 0 0 0 0.930467 0 0 0 0 0.905327 0 0 0 0 0.995833 0 0 0 1 0"/>
<feBlend mode="normal" in2="shape" result="effect1_innerShadow_5881_88411"/>
<feColorMatrix in="SourceAlpha" type="matrix" values="0 0 0 0 0 0 0 0 0 0 0 0 0 0 0 0 0 0 127 0" result="hardAlpha"/>
<feOffset dy="0.493859"/>
<feGaussianBlur stdDeviation="0.317481"/>
<feComposite in2="hardAlpha" operator="arithmetic" k2="-1" k3="1"/>
<feColorMatrix type="matrix" values="0 0 0 0 1 0 0 0 0 0.655 0 0 0 0 0.25 0 0 0 0.6 0"/>
<feBlend mode="normal" in2="effect1_innerShadow_5881_88411" result="effect2_innerShadow_5881_88411"/>
</filter>
<linearGradient id="paint0_linear_5881_88411" x1="145.339" y1="92.6977" x2="157.775" y2="116.876" gradientUnits="userSpaceOnUse">
<stop stop-color="#FF6B3D"/>
<stop offset="0.479167" stop-color="#FF718B"/>
<stop offset="1" stop-color="#B89BF0"/>
</linearGradient>
<linearGradient id="paint1_linear_5881_88411" x1="223.439" y1="13.0327" x2="232.318" y2="23.604" gradientUnits="userSpaceOnUse">
<stop stop-color="#FF6B3D"/>
<stop offset="0.479167" stop-color="#FF718B"/>
<stop offset="1" stop-color="#B89BF0"/>
</linearGradient>
</defs>
</svg>
