<svg width="300" height="300" viewBox="0 0 300 300" fill="none" xmlns="http://www.w3.org/2000/svg">
<path d="M143.558 299.785C121.85 301.282 100.327 294.93 82.9019 281.886C64.9351 268.677 47.9674 249.39 31.9986 224.024C16.0299 198.658 5.93658 175.015 1.71873 153.095C-2.48909 131.764 1.08845 109.629 11.8012 90.7139C22.6214 70.9787 42.8303 51.7761 72.4279 33.1063C103.978 13.1819 131.477 2.26779 154.924 0.364003C178.371 -1.53978 199.192 4.0242 217.388 17.056C235.562 30.1232 252.641 49.3349 268.625 74.6911C284.61 100.047 294.575 123.749 298.522 145.795C302.463 167.868 298.522 189.083 286.7 209.439C274.878 229.796 253.179 249.934 221.602 269.852C192.043 288.531 166.028 298.508 143.558 299.785Z" fill="#F0F3F8"/>
</svg>
