<svg width="32" height="32" viewBox="0 0 32 32" fill="none" xmlns="http://www.w3.org/2000/svg">
<path d="M30 25L28.586 23.586L26 26.172V18H24V26.172L21.414 23.586L20 25L25 30L30 25Z" fill="#6F57EB"/>
<path d="M18 28.0003H8V4.00034H16V10.0003C16.0016 10.5303 16.2128 11.0381 16.5875 11.4128C16.9623 11.7875 17.4701 11.9988 18 12.0003H24V15.0003H26V10.0003C26.0035 9.86892 25.9785 9.73829 25.9268 9.61745C25.875 9.49661 25.7976 9.38842 25.7 9.30034L18.7 2.30034C18.612 2.20268 18.5038 2.12529 18.3829 2.0735C18.2621 2.0217 18.1314 1.99674 18 2.00034H8C7.47005 2.00192 6.96227 2.21314 6.58753 2.58787C6.2128 2.96261 6.00158 3.47039 6 4.00034V28.0003C6.00158 28.5303 6.2128 29.0381 6.58753 29.4128C6.96227 29.7875 7.47005 29.9988 8 30.0003H18V28.0003ZM18 4.40034L23.6 10.0003H18V4.40034Z" fill="#6F57EB"/>
</svg>
