<svg width="60" height="60" viewBox="0 0 60 60" fill="none" xmlns="http://www.w3.org/2000/svg">
<path d="M24.7751 1.24045L24.7751 1.24048L24.7809 1.23875C28.7945 0.033798 33.1071 0.30971 36.9345 2.01632L36.9345 2.01634L36.9385 2.01806C40.9137 3.74951 44.9847 6.68729 49.149 10.8553C53.3136 15.0235 56.2549 19.0959 57.9964 23.0702L57.9973 23.0724C59.6946 26.897 59.9637 31.2037 58.7557 35.2099L58.7557 35.2099L58.7538 35.2166C57.5593 39.3857 54.5594 43.9062 49.6875 48.7768L49.6873 48.777C44.4903 53.9779 39.7227 57.2266 35.3855 58.5865C31.0458 59.9471 26.9023 59.786 22.9324 58.1154C18.9255 56.4204 14.8378 53.503 10.6719 49.3386C6.50601 45.1742 3.5882 41.0869 1.89361 37.0791C0.215599 33.1053 0.0506897 28.9594 1.41096 24.6187C2.77048 20.2803 6.01963 15.5102 11.2219 10.3093L11.2222 10.309C16.0862 5.43853 20.6044 2.43781 24.7751 1.24045Z" fill="#392B58" stroke="#392B58"/>
</svg>
