<svg width="80" height="80" viewBox="0 0 80 80" fill="none" xmlns="http://www.w3.org/2000/svg">
<path d="M1.01315 47.1505C-0.639371 41.6461 -0.26097 35.7315 2.07955 30.4824C4.43084 25.0842 8.40517 19.5888 14.0025 13.9964C19.5998 8.40393 25.0965 4.42542 30.4927 2.06086C35.7381 -0.266824 41.6446 -0.635891 47.139 1.02073C52.8508 2.6572 58.9735 6.74318 65.5072 13.2787C72.4779 20.2441 76.8926 26.6912 78.7515 32.6199C80.6103 38.5486 80.3935 44.2364 78.1012 49.6833C75.7985 55.1266 71.8502 60.6462 66.2563 66.2421C60.6624 71.838 55.1432 75.7871 49.6984 78.0892C44.2468 80.3914 38.5558 80.6133 32.6256 78.7549C26.6953 76.8965 20.2449 72.4812 13.2742 65.5088C6.74053 58.9837 2.6535 52.8643 1.01315 47.1505Z" fill="#392B58"/>
</svg>
