<svg width="30" height="30" viewBox="0 0 30 30" fill="none" xmlns="http://www.w3.org/2000/svg">
<path d="M27.0389 2.53288C25.0662 0.852736 22.336 0.00844293 18.8484 0H0V29.9998H8.57473V20.434C6.93665 20.1174 6.0231 19.6488 4.88695 18.585C7.15926 19.9717 9.83479 19.9633 11.0991 20.0034H18.8505C22.3367 20.0034 25.0669 19.1486 27.041 17.4389C29.0151 15.7292 30.0014 13.2083 30 9.87611C29.9986 6.66217 29.0116 4.21443 27.0389 2.53288ZM21.2069 10.3975C21.2069 11.2418 20.9639 11.894 20.4781 12.3541C19.9923 12.8143 19.2636 13.0457 18.2919 13.0485H8.57473V6.96542H18.2919C19.2916 6.96542 20.028 7.18986 20.5012 7.63874C20.9745 8.08762 21.2097 8.72084 21.2069 9.5384V10.3975Z" fill="#D8C9FF"/>
<path d="M22.0813 18.0047L30.0008 30H20.9955L13.0781 18.0047H22.0813Z" fill="#D8C9FF"/>
</svg>
